<svg xmlns="http://www.w3.org/2000/svg" viewBox="0 0 512 512" width="512" height="512">
  
    <defs>
      <radialGradient id="ic-bg" cx="50%" cy="30%" r="80%">
        <stop offset="0" stop-color="#2A2056"/><stop offset=".55" stop-color="#120E26"/><stop offset="1" stop-color="#07060F"/>
      </radialGradient>
    </defs>
    <rect x="16" y="16" width="480" height="480" rx="112" fill="url(#ic-bg)"/>
         <rect x="16.75" y="16.75" width="478.5" height="478.5" rx="111.25" fill="none" stroke="#ffffff" stroke-opacity=".08" stroke-width="1.5"/>
  <defs>
    <radialGradient id="ic-halo" cx="50%" cy="50%" r="50%">
      <stop offset=".55" stop-color="#7C5CFF" stop-opacity=".38"/><stop offset="1" stop-color="#7C5CFF" stop-opacity="0"/>
    </radialGradient>
    <radialGradient id="ic-shade" gradientUnits="userSpaceOnUse" cx="256" cy="256" r="175">
      <stop offset="0.74" stop-color="#000" stop-opacity=".42"/>
      <stop offset="0.83" stop-color="#000" stop-opacity="0"/>
      <stop offset=".9" stop-color="#fff" stop-opacity=".10"/>
      <stop offset="1" stop-color="#000" stop-opacity=".30"/>
    </radialGradient>
    <radialGradient id="ic-lens" cx="42%" cy="36%" r="70%">
      <stop offset="0" stop-color="#241D45"/><stop offset=".7" stop-color="#0C0A1A"/><stop offset="1" stop-color="#07060F"/>
    </radialGradient>
    <radialGradient id="ic-pupil" cx="38%" cy="34%" r="72%">
      <stop offset="0" stop-color="#FFE3A3"/><stop offset=".5" stop-color="#F5B83D"/><stop offset="1" stop-color="#D9951E"/>
    </radialGradient>
    <linearGradient id="ic-tail" gradientUnits="userSpaceOnUse" x1="162.19" y1="63.66" x2="424.63" y2="124.25">
      <stop offset="0" stop-color="#F5B83D" stop-opacity="0"/><stop offset=".75" stop-color="#F5B83D" stop-opacity=".85"/><stop offset="1" stop-color="#FFF6DD"/>
    </linearGradient>
    <radialGradient id="ic-head" cx="50%" cy="50%" r="50%">
      <stop offset="0" stop-color="#FFFFFF"/><stop offset=".45" stop-color="#FFF1C9"/><stop offset="1" stop-color="#F5B83D" stop-opacity="0"/>
    </radialGradient>
  </defs>
  <g transform="translate(256 256) scale(0.8) translate(-256 -256)">
    <circle class="" cx="256" cy="256" r="236" fill="url(#ic-halo)"/>
    <circle cx="256" cy="256" r="214" fill="none" stroke="#FFFFFF" stroke-opacity=".10" stroke-width="3"/>
    <circle cx="256" cy="256" r="152" fill="none" stroke="#0C0A1A" stroke-width="50"/>
    <g class=""><path d="M263.96 104.21 A152 152 0 0 1 357.71 143.04" stroke="#FF4D5E" stroke-width="46" fill="none"/><path d="M368.96 154.29 A152 152 0 0 1 407.79 248.04" stroke="#FF9F1C" stroke-width="46" fill="none"/><path d="M407.79 263.96 A152 152 0 0 1 368.96 357.71" stroke="#FFD93D" stroke-width="46" fill="none"/><path d="M357.71 368.96 A152 152 0 0 1 263.96 407.79" stroke="#2EE59D" stroke-width="46" fill="none"/><path d="M248.04 407.79 A152 152 0 0 1 154.29 368.96" stroke="#4D8DFF" stroke-width="46" fill="none"/><path d="M143.04 357.71 A152 152 0 0 1 104.21 263.96" stroke="#B57BFF" stroke-width="46" fill="none"/><path d="M104.21 248.04 A152 152 0 0 1 143.04 154.29" stroke="#FF6FCF" stroke-width="46" fill="none"/><path d="M154.29 143.04 A152 152 0 0 1 248.04 104.21" stroke="#F5F5F7" stroke-width="46" fill="none"/>
      <circle cx="256" cy="256" r="152" fill="none" stroke="url(#ic-shade)" stroke-width="46"/>
    </g>
    <circle cx="256" cy="256" r="126" fill="url(#ic-lens)"/>
    <circle cx="256" cy="256" r="125.25" fill="none" stroke="#FFFFFF" stroke-opacity=".14" stroke-width="1.5"/>
    <g class="">
      <circle cx="256" cy="256" r="80" fill="#F5B83D" fill-opacity=".16"/>
      <circle cx="256" cy="256" r="66" fill="url(#ic-pupil)"/>
      <ellipse cx="234" cy="231" rx="17" ry="13" fill="#FFFFFF" fill-opacity=".92" transform="rotate(-30 234 231)"/>
      <circle cx="276" cy="278" r="5" fill="#FFFFFF" fill-opacity=".45"/>
    </g>
    <g class="">
      <path d="M162.19 63.66 A214 214 0 0 1 424.63 124.25" stroke="url(#ic-tail)" stroke-width="7" stroke-linecap="round" fill="none"/>
      <circle cx="424.63" cy="124.25" r="24.200000000000003" fill="url(#ic-head)"/>
      <circle cx="424.63" cy="124.25" r="6.82" fill="#FFFFFF"/>
    </g>
  </g>
</svg>